<svg height="512" viewBox="0 0 38 58" width="512" xmlns="http://www.w3.org/2000/svg"><g id="024---Social-Media-Post" fill="none"><path id="Shape" d="m38 49v6c0 1.6568542-1.3431458 3-3 3h-32c-1.65685425 0-3-1.3431458-3-3v-6z" fill="#3f5c6c"/><path id="Shape" d="m38 3v6h-38v-6c0-1.65685425 1.34314575-3 3-3h32c1.6568542 0 3 1.34314575 3 3z" fill="#3f5c6c"/><path id="Rectangle-path" d="m0 8h38v42h-38z" fill="#2fa8cc"/><path id="Shape" d="m38 8s-38 0-38 42v-42z" fill="#67b9cc"/><g fill="#393f4a"><circle id="Oval" cx="24" cy="4" r="1"/><path id="Shape" d="m20 5h-5c-.5522847 0-1-.44771525-1-1s.4477153-1 1-1h5c.5522847 0 1 .44771525 1 1s-.4477153 1-1 1z"/><path id="Shape" d="m22 55h-6c-.5522847 0-1-.4477153-1-1s.4477153-1 1-1h6c.5522847 0 1 .4477153 1 1s-.4477153 1-1 1z"/></g><path id="Shape" d="m34 37v4h-30v-14l5 5 3.29-3.29c.3930079-.3899779 1.0269921-.3899779 1.42 0l4.29 4.29 2.29-2.29c.3930079-.3899779 1.0269921-.3899779 1.42 0l4.29 4.29 2.29-2.29c.3930079-.3899779 1.0269921-.3899779 1.42 0z" fill="#e57e25"/><path id="Shape" d="m34 14v24.5l-4.29-4.29c-.3930079-.3899779-1.0269921-.3899779-1.42 0l-2.29 2.29-4.29-4.29c-.3930079-.3899779-1.0269921-.3899779-1.42 0l-2.29 2.29-4.29-4.29c-.3930079-.3899779-1.0269921-.3899779-1.42 0l-3.29 3.29-5-5v-14.5c.0032948-1.1032019.89679813-1.9967052 2-2h26c1.1032019.0032948 1.9967052.8967981 2 2z" fill="#f3d55b"/><path id="Shape" d="m6 40h26c1.1045695 0 2 .8954305 2 2v4h-30v-4c0-1.1045695.8954305-2 2-2z" fill="#c03a2b" transform="matrix(-1 0 0 -1 38 86)"/><circle id="Oval" cx="27" cy="19" fill="#f5efca" r="3"/><path id="Shape" d="m10 23c-.85363563.0022034-1.61457577-.5376365-1.89454092-1.3440596-.27996515-.806423-.01723567-1.7016494.65412735-2.2288783.67136301-.527229 1.60335437-.5702303 2.32041357-.1070621.2668074-1.1438575 1.1766061-2.0267964 2.3279433-2.2592158 1.1513373-.2324195 2.3324069.2284375 3.0220567 1.1792158.9274267-.4386114 2.028682-.2661006 2.7775576.4351025.7488755.701203.993345 1.7887497.6165947 2.7429821-.3767504.9542324-1.2982381 1.5814355-2.3241523 1.5819154z" fill="#ecf0f1"/></g></svg>